<svg width="292" height="106" viewBox="0 0 292 106" fill="none" xmlns="http://www.w3.org/2000/svg">
<path fill-rule="evenodd" clip-rule="evenodd" d="M0.00012207 76.9645V36.3863C0.00839944 35.1374 0.502565 33.9425 1.37489 33.062C1.79394 32.6052 2.30311 32.2431 2.86921 31.9995C3.43531 31.756 4.04562 31.6363 4.66034 31.6483H9.13414V48.5125H27.3789V31.6483H36.6003V76.9645H27.3789V56.8115H9.13997V76.9645H0.00012207Z" fill="#DA2128"/>
<path fill-rule="evenodd" clip-rule="evenodd" d="M50.1673 68.8136H56.045C60.2741 68.8136 63.4081 67.6779 65.4062 65.3947C67.3169 63.277 68.3188 59.586 68.3188 54.3096C68.3188 49.2048 67.4217 45.5256 65.5751 43.0708C63.8275 40.7047 61.0722 39.4862 57.2275 39.4862H50.1673V68.8136ZM41.1439 76.9648V36.3866C41.1338 35.7687 41.2478 35.1552 41.4792 34.5836C41.7106 34.012 42.0544 33.4943 42.4896 33.0623C42.9253 32.6044 43.449 32.2422 44.0281 31.998C44.6073 31.7538 45.2296 31.6329 45.8566 31.6426H57.2159C64.0431 31.6426 69.2276 33.5532 72.6237 37.1852C76.0431 41.0892 77.715 46.7914 77.715 54.3392C77.778 58.0624 77.1516 61.7644 75.8684 65.2527C74.4703 68.6184 72.6412 71.1679 70.3693 72.9424C68.5638 74.409 66.4825 75.4859 64.2528 76.1071C62.1207 76.7518 59.01 77.0003 54.7285 77.0003L41.1439 76.9648Z" fill="#DA2128"/>
<path fill-rule="evenodd" clip-rule="evenodd" d="M91.0374 68.8132H101.942C104.342 68.8132 106.218 68.3814 107.546 67.3639C108.711 66.4708 109.335 64.9979 109.335 62.8566C109.335 60.804 108.717 59.2424 107.546 58.2605C106.381 57.3791 104.517 56.9592 101.837 56.9592H91.0607L91.0374 68.8132ZM91.0374 49.1748H101.523C103.812 49.1748 105.402 48.7844 106.492 47.9917C107.581 47.1991 108.047 45.9806 108.047 44.3066C108.047 42.6326 107.517 41.349 106.492 40.6214C105.601 39.9353 103.876 39.5153 101.424 39.5153H91.0374V49.1748ZM82.2179 76.9761V36.3862C82.2044 35.7662 82.3187 35.1502 82.5534 34.5777C82.7881 34.0052 83.1382 33.4888 83.581 33.0618C83.9994 32.6101 84.505 32.2508 85.0663 32.0065C85.6276 31.7623 86.2325 31.6382 86.8432 31.6422H103.247C107.802 31.6422 111.344 32.63 113.733 34.5998C116.121 36.5695 117.344 39.533 117.344 43.1176C117.425 45.1481 116.932 47.1595 115.923 48.9145C114.952 50.4567 113.571 51.6875 111.938 52.4636C114.006 53.3268 115.794 54.7613 117.1 56.6042C118.212 58.3019 118.801 60.4964 118.801 63.2352C118.801 67.5887 117.426 71.0077 114.647 73.4862C111.775 75.8522 107.756 77.0353 102.589 77.0353L82.2179 76.9761Z" fill="#5A5A5D"/>
<path fill-rule="evenodd" clip-rule="evenodd" d="M189.362 76.9647H184.702C183.51 77.0121 182.347 76.588 181.457 75.7817C181.037 75.3565 180.708 74.8471 180.493 74.286C180.277 73.7248 180.179 73.1242 180.205 72.5224V53.6825C180.205 51.5708 179.57 50.027 178.271 49.0628C177.029 48.1348 175.525 47.6371 173.983 47.6431C172.455 47.6225 170.964 48.1224 169.748 49.0628C168.531 50.027 167.925 51.5708 167.925 53.6825V76.9647H158.605V55.4985C158.605 49.5478 160.195 45.5551 163.265 43.538C166.374 41.4979 169.974 40.3606 173.675 40.2492C177.447 40.2192 181.155 41.2423 184.393 43.2068C187.644 45.3067 189.333 49.3467 189.333 55.4867L189.362 76.9647Z" fill="#5A5A5D"/>
<path fill-rule="evenodd" clip-rule="evenodd" d="M145.189 58.5625C143.468 59.3108 141.673 59.8719 139.836 60.2365L136.707 60.9167C135.065 61.3781 133.836 61.946 133.148 62.6499C132.556 63.4973 132.223 64.5037 132.193 65.5424C132.162 66.1301 132.253 66.7178 132.461 67.2672C132.668 67.8166 132.988 68.3153 133.399 68.7307C134.232 69.4701 135.414 69.8013 136.987 69.8013C139.521 69.8013 141.542 69.1152 142.97 67.6778C144.397 66.2404 145.183 64.312 145.183 61.8336L145.189 58.5625ZM147.397 73.7054C143.902 76.5506 139.946 76.9646 135.63 76.9646C132.565 77.0193 129.555 76.1372 126.991 74.4329C124.509 72.6584 123.315 69.8013 123.315 65.8204C123.315 62.1057 124.41 59.4675 126.682 57.8763C128.954 56.2851 131.785 55.2204 135.257 54.6821C135.79 54.6739 136.321 54.6085 136.841 54.4869C137.571 54.329 138.311 54.2203 139.055 54.1616C143.051 53.6174 145.067 52.4344 145.067 50.7071C145.067 49.3585 144.344 48.5126 142.981 48.134C141.708 47.7448 140.385 47.5455 139.055 47.5425C137.898 47.5167 136.745 47.7031 135.653 48.0926C135.161 48.2286 134.704 48.4721 134.315 48.8063C133.925 49.1404 133.613 49.557 133.399 50.0269H124.276C124.606 47.3368 125.972 44.8887 128.074 43.2185C130.562 41.2488 134.063 40.1899 138.63 40.1899C143.744 40.1899 147.577 41.0654 150.129 42.7394C151.372 43.5087 152.393 44.5988 153.086 45.8985C153.78 47.1983 154.122 48.6615 154.078 50.1393V62.2536C154.078 65.8027 153.42 68.5296 152.069 70.5348C150.385 72.1733 149.261 72.404 147.408 73.6935" fill="#5A5A5D"/>
<path fill-rule="evenodd" clip-rule="evenodd" d="M154.078 77.1123H150.001C149.458 77.1353 148.917 77.034 148.418 76.8159C147.918 76.5978 147.474 76.2685 147.117 75.8524C146.371 74.9597 145.981 73.8163 146.022 72.6464V61.9458H154.078V77.1123Z" fill="#5A5A5D"/>
<path fill-rule="evenodd" clip-rule="evenodd" d="M202.882 41.9348V54.2384L213.816 40.1899H224.599L212.413 55.3505L224.756 76.9645H213.968L207.659 65.1342C206.348 62.7267 205.23 61.7034 204.281 62.1056C203.331 62.5078 202.882 62.9988 202.882 63.6849V76.9645H193.871V31.6188H198.531C199.115 31.6052 199.695 31.7191 200.231 31.9528C200.768 32.1865 201.249 32.5345 201.642 32.9733C202.435 33.7656 202.889 34.8429 202.906 35.9723L202.882 41.9348Z" fill="#5A5A5D"/>
<path fill-rule="evenodd" clip-rule="evenodd" d="M9.17487 87.7773V89.617H7.87001C7.07562 89.6116 6.28663 89.7499 5.5399 90.0251C4.85712 90.2793 4.22694 90.6604 3.68164 91.149C3.15731 91.6476 2.75787 92.2661 2.51659 92.9531C2.19316 93.6123 2.0294 94.3403 2.03892 95.0767C2.00602 96.1602 2.27671 97.231 2.8195 98.1644C3.31922 98.9106 3.97579 99.5349 4.74184 99.9922C5.45905 100.38 6.25924 100.583 7.07195 100.584H9.16904V102.4H7.07195C5.81321 102.441 4.57 102.108 3.49523 101.441C2.41196 100.842 1.52964 99.9271 0.961244 98.8151C0.325606 97.6753 -0.00572507 96.3866 7.48563e-05 95.0767C0.0191799 93.8534 0.367698 92.6587 1.00785 91.6222C1.62089 90.4693 2.53624 89.5111 3.65252 88.8539C4.85584 88.1254 6.23634 87.7545 7.637 87.7833L9.17487 87.7773Z" fill="#464646"/>
<path fill-rule="evenodd" clip-rule="evenodd" d="M21.4429 102.423H19.6021V96.7803C19.6246 96.2303 19.4736 95.6874 19.171 95.2306C18.8944 94.7894 18.4862 94.4496 18.006 94.2605C17.4993 94.0194 16.9461 93.8962 16.3865 93.8996C15.7674 93.8905 15.1593 94.0675 14.639 94.4083C14.134 94.7043 13.7282 95.1473 13.4739 95.6801C13.2339 96.2397 13.1129 96.8444 13.1186 97.4547C13.1041 98.0577 13.2532 98.6532 13.5496 99.176C13.8051 99.7004 14.2114 100.134 14.7147 100.418C15.2218 100.733 15.804 100.901 16.3982 100.903C16.894 100.887 17.3793 100.753 17.8159 100.514C18.2526 100.275 18.6287 99.9366 18.9147 99.525V101.678C18.5337 101.96 18.1186 102.19 17.6798 102.364C17.2229 102.593 16.7139 102.693 16.206 102.654C15.5321 102.636 14.8678 102.487 14.2487 102.216C13.6401 101.956 13.0908 101.572 12.6351 101.087C12.1792 100.571 11.8305 99.9676 11.6098 99.312C11.3534 98.6856 11.2189 98.0147 11.2137 97.3364C11.2097 96.4123 11.4425 95.5031 11.8894 94.6982C12.281 93.9139 12.9015 93.2714 13.6661 92.8586C14.5079 92.3954 15.4525 92.1591 16.4098 92.1724C17.1296 92.1778 17.8445 92.2935 18.5302 92.5155C19.0989 92.7368 19.6252 93.0571 20.0856 93.4619C20.5346 93.8787 20.88 94.3977 21.0934 94.9762C21.3248 95.6125 21.4431 96.2854 21.4429 96.9637V102.423Z" fill="#464646"/>
<path fill-rule="evenodd" clip-rule="evenodd" d="M26.1731 102.423H24.3498V95.5499C24.3256 94.9666 24.4803 94.39 24.7925 93.8996C25.1329 93.3786 25.5825 92.9403 26.109 92.616C26.6695 92.3354 27.2842 92.184 27.909 92.1724C28.4799 92.1864 29.0439 92.3026 29.575 92.5155C30.058 92.7899 30.485 93.1553 30.8333 93.592C31.1242 93.1223 31.5431 92.7483 32.0391 92.5155C32.5796 92.2928 33.1568 92.1764 33.7401 92.1724C34.2177 92.1642 34.6918 92.2568 35.1323 92.4445C35.5484 92.6008 35.926 92.8471 36.2391 93.1661C36.5805 93.4546 36.8365 93.8333 36.979 94.2604C37.1757 94.6604 37.2736 95.103 37.2644 95.5499V102.423H35.4935V96.0291C35.5099 95.4597 35.3284 94.9027 34.9809 94.4556C34.8149 94.2772 34.6143 94.1356 34.3917 94.0399C34.1691 93.9442 33.9294 93.8964 33.6877 93.8996C32.3537 93.8996 31.6954 94.6982 31.6954 96.2953V102.423H29.8663V96.2953C29.8663 94.6982 29.2838 93.8996 27.9731 93.8996C27.7285 93.894 27.4854 93.9405 27.2596 94.0363C27.0338 94.1321 26.8304 94.2749 26.6624 94.4556C26.3028 94.8949 26.1272 95.4598 26.1731 96.0291V102.423Z" fill="#464646"/>
<path fill-rule="evenodd" clip-rule="evenodd" d="M51.0994 102.423H49.2411V87.7773H51.0994V96.0586H51.7926C52.5615 96.0586 53.0625 95.8752 53.3654 95.3133L55.113 92.3557H57.1926L55.8528 94.6212C55.6281 95.0293 55.3811 95.4242 55.113 95.8043C54.9296 96.1073 54.6563 96.3434 54.3324 96.4786C54.9786 96.5878 55.5696 96.9149 56.0101 97.4073C56.4283 98.0043 56.6338 98.7283 56.5926 99.4598V102.417H54.7576V99.6491C54.7719 99.4087 54.7391 99.1678 54.6611 98.9404C54.5831 98.713 54.4615 98.5035 54.3033 98.3241C54.1525 98.1668 53.9709 98.0434 53.7702 97.9619C53.5695 97.8804 53.3542 97.8426 53.1382 97.8509H51.0994V102.423Z" fill="#464646"/>
<path fill-rule="evenodd" clip-rule="evenodd" d="M69.0295 95.3313L62.2955 99.0993L61.5149 97.65L66.4547 94.8936C66.1955 94.5704 65.864 94.3149 65.4877 94.1483C65.0886 93.975 64.6576 93.8903 64.2237 93.8998C63.7882 93.8888 63.3553 93.9717 62.9537 94.143C62.552 94.3143 62.1907 94.5701 61.8935 94.8936C61.5712 95.2241 61.3191 95.6183 61.1528 96.0517C60.9865 96.4851 60.9095 96.9486 60.9265 97.4134C60.9192 97.8691 61.0009 98.3217 61.1669 98.745C61.3329 99.1684 61.5799 99.5542 61.8935 99.8801C62.1858 100.211 62.5459 100.472 62.9485 100.646C63.3512 100.82 63.7865 100.901 64.2237 100.886C64.6311 100.916 65.0403 100.859 65.4247 100.719C65.8091 100.578 66.16 100.357 66.4547 100.069C67.0472 99.4128 67.4256 98.5865 67.5382 97.7033L69.3848 97.9281C69.331 98.7904 69.0536 99.623 68.581 100.341C68.1397 101.064 67.5053 101.645 66.7518 102.015C65.9662 102.411 65.1003 102.613 64.2237 102.607C63.5436 102.583 62.8713 102.452 62.2314 102.217C61.6248 101.961 61.0698 101.594 60.5945 101.134C60.1263 100.645 59.7335 100.086 59.4295 99.4778C59.1809 98.8066 59.0545 98.0951 59.0566 97.3779C59.0501 96.6624 59.1766 95.952 59.4295 95.284C59.696 94.6498 60.0933 94.081 60.5945 93.6159C61.0677 93.1395 61.6224 92.7547 62.2314 92.4802C62.8718 92.2528 63.5453 92.1368 64.2237 92.1371C65.2525 92.1183 66.2646 92.404 67.1363 92.9593C67.9795 93.5485 68.6401 94.3692 69.0412 95.3254" fill="#464646"/>
<path fill-rule="evenodd" clip-rule="evenodd" d="M61.4742 91.3444L63.2276 88.8481H64.8295L66.6295 91.3444H65.1965L64.0256 89.7473L62.8314 91.3444H61.4742Z" fill="#464646"/>
<path fill-rule="evenodd" clip-rule="evenodd" d="M66.1343 90.1909L67.7188 87.6592H69.5946L67.3169 90.1909H66.1343Z" fill="#464646"/>
<path fill-rule="evenodd" clip-rule="evenodd" d="M77.6509 92.3971V94.1717H74.0684V99.4421C74.0471 99.797 74.1572 100.147 74.3771 100.424C74.6865 100.62 75.0509 100.708 75.414 100.672H77.6509V102.447H75.146C74.7458 102.472 74.3451 102.405 73.9733 102.253C73.6014 102.1 73.2678 101.866 72.9965 101.566C72.4579 100.901 72.1781 100.059 72.2101 99.1996V89.8477H74.0567V92.403L77.6509 92.3971Z" fill="#464646"/>
<path d="M91.4044 87.7773H89.5752V102.423H91.4044V87.7773Z" fill="#464646"/>
<path fill-rule="evenodd" clip-rule="evenodd" d="M98.4762 104.517C98.474 104.395 98.4973 104.274 98.5445 104.162C98.5917 104.05 98.6617 103.949 98.75 103.867C98.8315 103.774 98.9341 103.703 99.0488 103.66C99.1635 103.616 99.2869 103.602 99.4083 103.618C99.5318 103.609 99.6558 103.626 99.7723 103.669C99.8887 103.712 99.9949 103.779 100.084 103.867C100.228 104.05 100.299 104.283 100.282 104.517C100.294 104.748 100.224 104.975 100.084 105.156C99.9998 105.251 99.8949 105.326 99.7777 105.373C99.6604 105.42 99.534 105.439 99.4083 105.428C99.2847 105.446 99.1588 105.429 99.0433 105.382C98.9277 105.334 98.8266 105.256 98.75 105.156C98.6617 105.076 98.5915 104.977 98.5443 104.867C98.497 104.757 98.4738 104.638 98.4762 104.517ZM96.3209 97.4191C96.3106 98.3308 96.6416 99.2124 97.2471 99.8857C97.5521 100.213 97.9212 100.471 98.3306 100.644C98.7399 100.817 99.1805 100.902 99.6238 100.891C100.06 100.902 100.494 100.818 100.896 100.644C101.298 100.471 101.659 100.212 101.954 99.8857C102.257 99.5562 102.49 99.1676 102.64 98.7435C102.791 98.3195 102.854 97.8689 102.828 97.4191C102.866 96.9602 102.808 96.4983 102.657 96.0639C102.507 95.6295 102.267 95.2325 101.954 94.8992C101.657 94.5754 101.296 94.3194 100.894 94.1481C100.492 93.9768 100.059 93.8941 99.6238 93.9055C99.1814 93.8944 98.7416 93.9771 98.3324 94.1482C97.9232 94.3193 97.5536 94.5751 97.2471 94.8992C96.9362 95.2361 96.6943 95.6324 96.5353 96.0649C96.3763 96.4974 96.3035 96.9577 96.3209 97.4191ZM94.4102 97.4191C94.4023 96.6937 94.5619 95.9765 94.8762 95.3251C95.1114 94.6843 95.4974 94.1116 96.0005 93.657C96.4863 93.1826 97.0501 92.7982 97.6665 92.5213C98.2967 92.3013 98.9575 92.1855 99.6238 92.1782C100.222 92.1881 100.813 92.3042 101.371 92.5213C101.887 92.6674 102.368 92.9168 102.787 93.2548C103.199 93.5978 103.563 93.9957 103.87 94.4378C104.189 94.4345 104.502 94.3555 104.785 94.2071C104.884 94.146 104.969 94.0652 105.036 93.9696C105.103 93.8741 105.151 93.7657 105.175 93.6511H104.727V92.2019H105.892V93.5505C105.911 93.7738 105.875 93.9983 105.789 94.2046C105.703 94.4108 105.568 94.5924 105.397 94.7336C105.072 94.9875 104.671 95.1211 104.261 95.1121C104.43 95.4379 104.554 95.7864 104.628 96.1473C104.744 96.571 104.803 97.0088 104.802 97.4486C104.802 98.1784 104.633 98.8979 104.307 99.5485C104.077 100.176 103.711 100.742 103.235 101.205C102.751 101.667 102.186 102.034 101.569 102.287C100.939 102.512 100.28 102.644 99.6122 102.678C98.9279 102.64 98.2519 102.509 97.6024 102.287C96.9992 102.039 96.4506 101.671 95.9888 101.205C95.5015 100.741 95.1181 100.176 94.8646 99.5485C94.5546 98.8934 94.3952 98.1754 94.3985 97.4486" fill="#464646"/>
<path fill-rule="evenodd" clip-rule="evenodd" d="M110.237 102.423H108.397V92.397H110.237V102.423ZM108.397 90.1256C108.406 89.8845 108.494 89.6534 108.647 89.469C108.734 89.3819 108.838 89.3139 108.953 89.2691C109.067 89.2244 109.189 89.2038 109.311 89.2087C109.552 89.2101 109.784 89.3065 109.956 89.4774C110.129 89.6484 110.23 89.8808 110.237 90.1256C110.219 90.374 110.116 90.6081 109.946 90.7881C109.776 90.955 109.548 91.0484 109.311 91.0483C109.066 91.0449 108.831 90.9526 108.647 90.7881C108.506 90.5943 108.42 90.3654 108.397 90.1256Z" fill="#464646"/>
<path fill-rule="evenodd" clip-rule="evenodd" d="M124.626 102.423H122.779V92.3972H124.626V102.423ZM122.208 91.1491L123.746 88.6411H125.639L123.344 91.1491H122.208Z" fill="#464646"/>
<path fill-rule="evenodd" clip-rule="evenodd" d="M135.298 92.3975V94.172H133.818C133.248 94.1626 132.684 94.2881 132.17 94.5388C131.638 94.7997 131.191 95.2103 130.882 95.7218C130.561 96.2398 130.399 96.8431 130.416 97.4549C130.396 97.9097 130.48 98.3631 130.661 98.7796C130.842 99.1962 131.115 99.5647 131.459 99.8565C132.117 100.42 132.957 100.717 133.818 100.691H135.298V102.465H133.509C132.699 102.447 131.903 102.245 131.179 101.874C130.403 101.453 129.743 100.843 129.257 100.099C128.836 99.3933 128.587 98.5959 128.531 97.773C128.474 96.9501 128.611 96.1253 128.931 95.3669C129.228 94.7523 129.637 94.2004 130.137 93.7402C130.608 93.2993 131.172 92.9718 131.785 92.782C132.341 92.5561 132.934 92.4377 133.533 92.433L135.298 92.3975Z" fill="#464646"/>
<path fill-rule="evenodd" clip-rule="evenodd" d="M139.515 102.423H137.651V87.7773H139.515V93.2489C139.818 92.9071 140.19 92.6349 140.604 92.4503C141.065 92.2546 141.561 92.1599 142.061 92.1723C144.787 92.1723 146.202 93.6511 146.202 96.5673V102.423H144.391V96.5673C144.391 94.7928 143.569 93.8996 141.921 93.8996C141.594 93.896 141.271 93.9658 140.974 94.1038C140.677 94.2419 140.413 94.4448 140.203 94.6981C139.964 94.9426 139.78 95.2356 139.661 95.5578C139.543 95.88 139.493 96.2241 139.515 96.5673V102.423Z" fill="#464646"/>
<path fill-rule="evenodd" clip-rule="evenodd" d="M164.884 92.3975V94.172H163.475C162.882 94.1661 162.296 94.2912 161.756 94.5388C161.255 94.824 160.831 95.2304 160.521 95.7218C160.134 96.3696 159.975 97.1311 160.068 97.8827C160.161 98.6344 160.501 99.332 161.034 99.8624C161.721 100.431 162.588 100.728 163.475 100.696H164.884V102.471H163.108C162.298 102.448 161.503 102.246 160.777 101.88C160.007 101.455 159.351 100.846 158.867 100.105C158.379 99.308 158.123 98.3874 158.127 97.449C158.1 96.7289 158.25 96.0132 158.564 95.3669C158.841 94.7508 159.237 94.1975 159.729 93.7402C160.195 93.292 160.751 92.9527 161.36 92.7465C161.915 92.5171 162.508 92.3986 163.108 92.3975H164.884Z" fill="#464646"/>
<path fill-rule="evenodd" clip-rule="evenodd" d="M177.088 102.424H175.3V96.7805C175.299 96.2294 175.139 95.6906 174.84 95.2307C174.526 94.801 174.103 94.4657 173.616 94.2606C173.115 94.0111 172.561 93.8874 172.003 93.8998C171.385 93.8994 170.779 94.0757 170.255 94.4085C169.749 94.7024 169.342 95.146 169.09 95.6803C168.829 96.235 168.688 96.8401 168.676 97.4548C168.686 98.0564 168.838 98.6467 169.119 99.1762C169.382 99.6781 169.765 100.105 170.232 100.418C170.767 100.722 171.367 100.889 171.979 100.903C172.471 100.89 172.953 100.758 173.384 100.519C173.816 100.279 174.185 99.9384 174.461 99.5251V101.678C174.096 101.981 173.679 102.213 173.232 102.364C172.787 102.603 172.282 102.704 171.781 102.654C171.124 102.636 170.477 102.487 169.876 102.217C169.263 101.969 168.715 101.58 168.275 101.081C167.801 100.583 167.457 99.9728 167.273 99.3063C166.998 98.6855 166.861 98.0111 166.871 97.3306C166.838 96.4024 167.075 95.4849 167.552 94.6924C167.923 93.8871 168.557 93.237 169.346 92.8528C170.156 92.3841 171.076 92.147 172.009 92.1667C172.727 92.1633 173.441 92.2792 174.123 92.5097C174.715 92.7161 175.261 93.0376 175.731 93.4562C176.163 93.8835 176.501 94.3998 176.721 94.9705C176.968 95.5988 177.093 96.2697 177.088 96.9461V102.424Z" fill="#464646"/>
<path fill-rule="evenodd" clip-rule="evenodd" d="M181.451 97.4132C181.439 98.3242 181.768 99.206 182.372 99.8798C182.671 100.202 183.032 100.458 183.433 100.631C183.834 100.804 184.266 100.891 184.702 100.885C185.137 100.887 185.568 100.798 185.968 100.625C186.369 100.452 186.731 100.199 187.032 99.8798C187.644 99.2101 187.977 98.3266 187.964 97.4132C187.983 96.9512 187.91 96.49 187.75 96.0571C187.59 95.6242 187.346 95.2285 187.032 94.8933C186.729 94.577 186.367 94.326 185.967 94.1552C185.566 93.9845 185.136 93.8975 184.702 93.8996C184.267 93.8937 183.836 93.9789 183.435 94.1499C183.034 94.3209 182.672 94.574 182.372 94.8933C182.062 95.2308 181.821 95.6272 181.663 96.0597C181.505 96.4922 181.433 96.9523 181.451 97.4132ZM179.564 97.4132C179.549 96.7131 179.676 96.0174 179.939 95.3699C180.202 94.7224 180.594 94.1372 181.09 93.6512C181.592 93.1922 182.157 92.8097 182.768 92.5154C183.394 92.2964 184.051 92.1806 184.713 92.1724C185.384 92.1745 186.049 92.2905 186.682 92.5154C187.292 92.7856 187.852 93.1597 188.337 93.6216C188.829 94.1 189.216 94.6785 189.473 95.3192C189.757 95.9796 189.904 96.6925 189.904 97.4132C189.902 98.1356 189.755 98.8501 189.473 99.5131C189.211 100.139 188.824 100.703 188.337 101.169C187.872 101.646 187.312 102.015 186.694 102.252C186.058 102.486 185.39 102.618 184.713 102.642C184.05 102.609 183.394 102.477 182.768 102.252C182.149 101.997 181.58 101.63 181.09 101.169C180.625 100.685 180.243 100.126 179.96 99.5131C179.689 98.8475 179.555 98.1332 179.564 97.4132Z" fill="#464646"/>
<path fill-rule="evenodd" clip-rule="evenodd" d="M203.686 102.424H201.84V96.5677C201.826 95.7639 202.015 94.97 202.387 94.2607C202.754 93.6225 203.286 93.0987 203.925 92.7465C204.576 92.3464 205.325 92.1413 206.086 92.1549C206.866 92.1419 207.633 92.3465 208.306 92.7465C208.944 93.09 209.469 93.6166 209.815 94.2607C210.189 94.9695 210.38 95.7634 210.368 96.5677V102.424H208.51V96.5677C208.54 96.0993 208.428 95.6327 208.189 95.2308C207.999 94.8212 207.687 94.4821 207.298 94.2607C206.938 94.0223 206.516 93.8968 206.086 93.8999C205.652 93.9014 205.226 94.0264 204.857 94.2607C204.493 94.5054 204.194 94.8389 203.989 95.2308C203.756 95.6345 203.65 96.1011 203.686 96.5677V102.424Z" fill="#464646"/>
<path fill-rule="evenodd" clip-rule="evenodd" d="M215.086 102.423H213.205V87.7773H215.063V93.2489C215.373 92.9151 215.743 92.6441 216.152 92.4503C216.622 92.2584 217.125 92.1639 217.632 92.1723C220.376 92.1723 221.756 93.6511 221.756 96.5673V102.423H219.962V96.5673C219.962 94.7928 219.164 93.8996 217.562 93.8996C217.23 93.8886 216.9 93.9548 216.597 94.0932C216.294 94.2316 216.027 94.4385 215.815 94.6981C215.567 94.9381 215.372 95.2289 215.243 95.5511C215.115 95.8734 215.055 96.2198 215.069 96.5673L215.086 102.423Z" fill="#464646"/>
<path fill-rule="evenodd" clip-rule="evenodd" d="M234.485 102.423H232.673V96.7801C232.683 96.2237 232.514 95.6791 232.189 95.2304C231.894 94.7898 231.473 94.4513 230.984 94.2603C230.491 94.0154 229.948 93.8918 229.399 93.8995C228.781 93.8951 228.174 94.0717 227.652 94.4082C227.154 94.7044 226.757 95.1482 226.516 95.6799C226.233 96.2266 226.091 96.837 226.102 97.4545C226.093 98.0547 226.235 98.6473 226.516 99.1758C226.786 99.6801 227.176 100.107 227.652 100.418C228.17 100.726 228.758 100.893 229.358 100.903C229.858 100.886 230.347 100.752 230.788 100.513C231.23 100.275 231.611 99.9364 231.904 99.5248V101.678C231.516 101.959 231.096 102.189 230.652 102.364C230.185 102.595 229.666 102.695 229.149 102.654C228.481 102.63 227.824 102.481 227.209 102.216C226.615 101.966 226.088 101.577 225.671 101.08C225.174 100.599 224.822 99.9833 224.657 99.3059C224.375 98.6879 224.242 98.0109 224.267 97.3303C224.26 96.4138 224.469 95.5089 224.879 94.6921C225.279 93.9122 225.9 93.2716 226.661 92.8525C227.514 92.3864 228.471 92.1501 229.44 92.1663C230.146 92.1716 230.848 92.2873 231.519 92.5094C232.104 92.728 232.646 93.0483 233.121 93.4558C233.558 93.8686 233.879 94.3909 234.053 94.9701C234.338 95.5919 234.478 96.2721 234.461 96.9576L234.485 102.423Z" fill="#464646"/>
<path fill-rule="evenodd" clip-rule="evenodd" d="M226.842 91.4271L228.624 88.9072H230.232L231.98 91.4271H230.587L229.399 89.7945L228.246 91.4271H226.842Z" fill="#464646"/>
<path fill-rule="evenodd" clip-rule="evenodd" d="M231.514 90.1909L233.087 87.6592H234.945L232.696 90.1909H231.514Z" fill="#464646"/>
<path fill-rule="evenodd" clip-rule="evenodd" d="M242.978 92.3971V94.1717H239.372V99.4421C239.351 99.6253 239.376 99.8108 239.443 99.9821C239.51 100.153 239.618 100.305 239.756 100.424C240.044 100.624 240.394 100.713 240.741 100.672H242.978V102.447H240.525C240.123 102.473 239.72 102.408 239.346 102.255C238.972 102.103 238.637 101.867 238.364 101.566C238.083 101.245 237.869 100.87 237.734 100.464C237.599 100.057 237.546 99.6274 237.578 99.1996V89.8477H239.372V92.403L242.978 92.3971Z" fill="#464646"/>
<path d="M288.298 15.2012C271.65 21.6577 254.078 25.4055 236.249 26.3029C237.138 39.7785 245.952 54.5283 253.163 54.5283C271.436 54.5283 286.12 23.9988 289.221 17.4704C290.406 15.0441 289.5 14.6776 288.298 15.2012Z" fill="url(#paint0_linear_601_6154)"/>
<path d="M246.213 20.6123C237.503 17.4704 239.245 2.4238 239.054 1.41139C238.183 -1.88769 224.979 9.75508 224.979 17.6624C224.979 20.9615 227.122 22.0088 230.64 22.1135C235.85 22.0793 241.048 21.6064 246.178 20.6996C246.3 20.7171 246.283 20.6298 246.213 20.6123Z" fill="url(#paint1_linear_601_6154)"/>
<defs>
<linearGradient id="paint0_linear_601_6154" x1="229.986" y1="30.3991" x2="293.025" y2="41.4892" gradientUnits="userSpaceOnUse">
<stop stop-color="#F9A51A"/>
<stop offset="0.5" stop-color="#FFDC00"/>
<stop offset="1" stop-color="#FFDC00"/>
</linearGradient>
<linearGradient id="paint1_linear_601_6154" x1="243.268" y1="25.5871" x2="230.39" y2="-1.97195" gradientUnits="userSpaceOnUse">
<stop stop-color="#F9A51A"/>
<stop offset="0.2" stop-color="#FFC10E"/>
<stop offset="0.45" stop-color="#FFDC00"/>
<stop offset="1" stop-color="#FFDC00"/>
</linearGradient>
</defs>
</svg>
